<svg width="65" height="73" viewBox="0 0 65 73" fill="none" xmlns="http://www.w3.org/2000/svg">
<path d="M32.4628 72.1083C14.5645 72.1083 0 57.5438 0 39.643V0H64.9281V39.643C64.9281 57.5438 50.366 72.1083 32.4628 72.1083Z" fill="#011F5B"/>
<path d="M32.4628 69.2046C24.6254 69.1956 17.1115 66.0782 11.5696 60.5362C6.02765 54.9943 2.91025 47.4805 2.90125 39.643V2.90121H62.0268V39.643C62.0178 47.4809 58.9001 54.9951 53.3576 60.5371C47.8152 66.0791 40.3007 69.1962 32.4628 69.2046Z" fill="white"/>
<path d="M5.80243 5.8049H59.1231V39.643C59.1231 46.7138 56.3142 53.4949 51.3145 58.4947C46.3147 63.4945 39.5335 66.3034 32.4628 66.3034C25.392 66.3034 18.6108 63.4945 13.6111 58.4947C8.61128 53.4949 5.80243 46.7138 5.80243 39.643V5.8049Z" fill="#990000"/>
<path d="M43.5478 14.584H15.0384V17.7573H43.5478V14.584Z" fill="white"/>
<path d="M40.3865 20.9307V30.446H43.5575V20.9307H40.3865Z" fill="white"/>
<path d="M15.0287 14.5937V24.1041H18.1996V14.5937H15.0287Z" fill="white"/>
<path d="M43.5478 20.9307H15.0384V24.1041H43.5478V20.9307Z" fill="white"/>
<path d="M49.8946 14.584H46.7285V17.7573H49.8946V14.584Z" fill="white"/>
<path d="M49.8946 20.9307H46.7285V30.4485H49.8946V20.9307Z" fill="white"/>
<path d="M43.5478 27.2775H15.0384V30.4509H43.5478V27.2775Z" fill="white"/>
<path d="M49.8994 49.4718V33.617H46.7285V49.4718H49.8994Z" fill="white"/>
<path d="M43.5575 49.4742V33.6194H40.3865V49.4742H43.5575Z" fill="white"/>
<path d="M37.2156 49.4742V33.6194H34.0446V49.4742H37.2156Z" fill="white"/>
<path d="M30.8762 38.3625C30.8786 38.9879 30.7565 39.6075 30.517 40.1853C30.2776 40.7631 29.9256 41.2874 29.4814 41.7278C29.046 42.1731 28.5253 42.5261 27.9505 42.7657C27.3756 43.0054 26.7583 43.1267 26.1355 43.1225H15.0287V39.9637H26.1161C26.5369 39.9637 26.9405 39.7966 27.2381 39.499C27.5356 39.2014 27.7028 38.7979 27.7028 38.377C27.7028 37.9562 27.5356 37.5526 27.2381 37.2551C26.9405 36.9575 26.5369 36.7904 26.1161 36.7904H15.0287V33.6218H26.1355C27.3922 33.6238 28.5969 34.1238 29.4856 35.0125C30.3742 35.9011 30.8743 37.1058 30.8762 38.3625Z" fill="white"/>
<path d="M30.8762 44.7092C30.8711 45.9647 30.3699 47.1673 29.4819 48.0549C28.5939 48.9424 27.391 49.443 26.1355 49.4475H15.0287V46.2886H26.1161C26.5369 46.2886 26.9405 46.1215 27.2381 45.8239C27.5356 45.5264 27.7028 45.1228 27.7028 44.702C27.7028 44.2811 27.5356 43.8776 27.2381 43.58C26.9405 43.2824 26.5369 43.1153 26.1161 43.1153H15.0287V39.9565H26.1355C26.7593 39.9558 27.377 40.0784 27.9533 40.3172C28.5295 40.5559 29.0529 40.9062 29.4934 41.3478C29.9339 41.7894 30.2828 42.3137 30.5201 42.8906C30.7574 43.4674 30.8784 44.0855 30.8762 44.7092Z" fill="white"/>
</svg>
