<svg width="199" height="73" viewBox="0 0 199 73" fill="none" xmlns="http://www.w3.org/2000/svg">
<g clip-path="url(#clip0_242_407)">
<path d="M81.3588 7.79239C81.2899 7.21084 81.0106 6.75938 80.5209 6.43799C80.0312 6.11661 79.4305 5.95592 78.7189 5.95592C78.1985 5.95592 77.7432 6.04009 77.353 6.20843C76.9666 6.37678 76.6643 6.60825 76.4462 6.90285C76.232 7.19745 76.1248 7.53222 76.1248 7.90717C76.1248 8.2209 76.1995 8.49063 76.3487 8.71637C76.5017 8.93827 76.6968 9.12383 76.934 9.27305C77.1713 9.41843 77.4199 9.53895 77.6801 9.6346C77.9403 9.72642 78.1794 9.80103 78.3975 9.85842L79.5912 10.1798C79.8973 10.2601 80.2378 10.3711 80.6127 10.5127C80.9915 10.6542 81.353 10.8474 81.6974 11.0923C82.0456 11.3333 82.3325 11.6432 82.5582 12.022C82.784 12.4008 82.8968 12.8656 82.8968 13.4166C82.8968 14.0517 82.7304 14.6256 82.3975 15.1383C82.0685 15.651 81.5864 16.0584 80.9513 16.3607C80.32 16.6629 79.5529 16.8141 78.65 16.8141C77.8083 16.8141 77.0794 16.6782 76.4634 16.4066C75.8513 16.1349 75.3692 15.7562 75.0172 15.2703C74.6691 14.7844 74.472 14.22 74.4261 13.5773H75.8953C75.9335 14.0211 76.0828 14.3884 76.3429 14.6792C76.6069 14.9661 76.9398 15.1804 77.3415 15.3219C77.7471 15.4597 78.1832 15.5285 78.65 15.5285C79.1933 15.5285 79.6811 15.4405 80.1134 15.2645C80.5458 15.0847 80.8882 14.836 81.1407 14.5185C81.3932 14.1971 81.5195 13.8221 81.5195 13.3936C81.5195 13.0034 81.4104 12.6858 81.1924 12.441C80.9743 12.1961 80.6873 11.9971 80.3315 11.8441C79.9757 11.6911 79.5912 11.5572 79.178 11.4424L77.7318 11.0292C76.8135 10.7652 76.0866 10.3883 75.5509 9.89859C75.0153 9.40887 74.7475 8.76802 74.7475 7.97604C74.7475 7.31797 74.9254 6.74407 75.2812 6.25435C75.6409 5.76079 76.1229 5.3782 76.7274 5.10655C77.3358 4.83108 78.0149 4.69335 78.7648 4.69335C79.5223 4.69335 80.1957 4.82917 80.7849 5.10081C81.3741 5.36863 81.8409 5.73593 82.1852 6.2027C82.5334 6.66946 82.717 7.19936 82.7361 7.79239H81.3588ZM85.719 16.6075H84.2268L88.5425 4.85404H90.0117L94.3274 16.6075H92.8353L89.323 6.71346H89.2312L85.719 16.6075ZM86.2699 12.0163H92.2844V13.2788H86.2699V12.0163ZM103.64 8.52698C103.514 8.14056 103.348 7.7943 103.141 7.48823C102.938 7.17832 102.695 6.91433 102.412 6.69625C102.133 6.47817 101.815 6.31174 101.46 6.19696C101.104 6.08218 100.713 6.02479 100.289 6.02479C99.5925 6.02479 98.9593 6.20461 98.3892 6.56425C97.8191 6.92389 97.3657 7.45379 97.0291 8.15395C96.6924 8.8541 96.524 9.71303 96.524 10.7307C96.524 11.7485 96.6943 12.6074 97.0348 13.3075C97.3753 14.0077 97.8363 14.5376 98.4179 14.8972C98.9994 15.2569 99.6537 15.4367 100.381 15.4367C101.054 15.4367 101.647 15.2932 102.16 15.0063C102.676 14.7155 103.078 14.3061 103.365 13.7781C103.656 13.2463 103.801 12.6208 103.801 11.9015L104.237 11.9933H100.702V10.7307H105.178V11.9933C105.178 12.9613 104.972 13.803 104.559 14.5185C104.149 15.2339 103.583 15.7887 102.86 16.1828C102.141 16.573 101.314 16.7681 100.381 16.7681C99.3399 16.7681 98.4255 16.5233 97.6374 16.0336C96.8531 15.5438 96.2409 14.8475 95.8009 13.9446C95.3648 13.0416 95.1467 11.9704 95.1467 10.7307C95.1467 9.80103 95.271 8.96505 95.5197 8.22281C95.7722 7.47675 96.128 6.84163 96.5872 6.31748C97.0463 5.79332 97.5896 5.39159 98.217 5.11229C98.8445 4.83299 99.5351 4.69335 100.289 4.69335C100.909 4.69335 101.486 4.78708 102.022 4.97456C102.561 5.1582 103.042 5.42028 103.462 5.76079C103.887 6.09748 104.241 6.50112 104.524 6.97172C104.807 7.43849 105.002 7.95691 105.11 8.52698H103.64ZM107.616 16.6075V4.85404H114.709V6.11661H109.039V10.088H114.342V11.3506H109.039V15.3449H114.801V16.6075H107.616Z" fill="#011F5B"/>
<path d="M76.3544 18.7066V30.46H74.9311V18.7066H76.3544ZM88.5282 18.7066V30.46H87.1508L80.7462 21.2318H80.6314V30.46H79.2081V18.7066H80.5855L87.0131 27.9578H87.1279V18.7066H88.5282ZM97.8038 21.645C97.7349 21.0634 97.4556 20.6119 96.9659 20.2906C96.4762 19.9692 95.8755 19.8085 95.1639 19.8085C94.6436 19.8085 94.1883 19.8927 93.798 20.061C93.4116 20.2293 93.1093 20.4608 92.8913 20.7554C92.677 21.05 92.5699 21.3848 92.5699 21.7597C92.5699 22.0735 92.6445 22.3432 92.7937 22.5689C92.9467 22.7908 93.1419 22.9764 93.3791 23.1256C93.6163 23.271 93.865 23.3915 94.1251 23.4872C94.3853 23.579 94.6244 23.6536 94.8425 23.711L96.0362 24.0324C96.3423 24.1127 96.6828 24.2237 97.0577 24.3652C97.4365 24.5068 97.7981 24.7 98.1424 24.9449C98.4906 25.1859 98.7775 25.4958 99.0033 25.8746C99.229 26.2534 99.3419 26.7182 99.3419 27.2692C99.3419 27.9043 99.1754 28.4782 98.8426 28.9908C98.5135 29.5035 98.0315 29.911 97.3963 30.2132C96.7651 30.5155 95.9979 30.6666 95.095 30.6666C94.2533 30.6666 93.5245 30.5308 92.9085 30.2592C92.2963 29.9875 91.8142 29.6087 91.4622 29.1228C91.1141 28.6369 90.917 28.0726 90.8711 27.4298H92.3403C92.3786 27.8737 92.5278 28.241 92.788 28.5317C93.0519 28.8187 93.3848 29.0329 93.7865 29.1745C94.1921 29.3122 94.6282 29.3811 95.095 29.3811C95.6383 29.3811 96.1261 29.2931 96.5585 29.1171C96.9908 28.9373 97.3332 28.6886 97.5857 28.371C97.8382 28.0497 97.9645 27.6747 97.9645 27.2462C97.9645 26.8559 97.8555 26.5384 97.6374 26.2935C97.4193 26.0487 97.1324 25.8497 96.7765 25.6967C96.4207 25.5436 96.0362 25.4097 95.623 25.2949L94.1768 24.8817C93.2585 24.6177 92.5316 24.2409 91.996 23.7512C91.4603 23.2614 91.1925 22.6206 91.1925 21.8286C91.1925 21.1705 91.3704 20.5966 91.7262 20.1069C92.0859 19.6134 92.568 19.2308 93.1725 18.9591C93.7808 18.6837 94.4599 18.5459 95.2098 18.5459C95.9673 18.5459 96.6407 18.6817 97.2299 18.9534C97.8191 19.2212 98.2859 19.5885 98.6302 20.0553C98.9784 20.522 99.162 21.0519 99.1812 21.645H97.8038ZM101.039 19.9692V18.7066H109.854V19.9692H106.158V30.46H104.735V19.9692H101.039ZM113.474 18.7066V30.46H112.051V18.7066H113.474ZM115.685 19.9692V18.7066H124.5V19.9692H120.804V30.46H119.381V19.9692H115.685ZM134.41 18.7066H135.833V26.4887C135.833 27.2921 135.644 28.0095 135.265 28.6408C134.89 29.2682 134.36 29.7637 133.675 30.1272C132.99 30.4868 132.187 30.6666 131.265 30.6666C130.343 30.6666 129.539 30.4868 128.855 30.1272C128.17 29.7637 127.638 29.2682 127.259 28.6408C126.884 28.0095 126.697 27.2921 126.697 26.4887V18.7066H128.12V26.3739C128.12 26.9478 128.246 27.4585 128.499 27.9062C128.751 28.35 129.111 28.7001 129.578 28.9564C130.048 29.2089 130.611 29.3352 131.265 29.3352C131.919 29.3352 132.482 29.2089 132.952 28.9564C133.423 28.7001 133.782 28.35 134.031 27.9062C134.284 27.4585 134.41 26.9478 134.41 26.3739V18.7066ZM138.033 19.9692V18.7066H146.848V19.9692H143.152V30.46H141.728V19.9692H138.033ZM149.044 30.46V18.7066H156.138V19.9692H150.467V23.9405H155.77V25.2031H150.467V29.1974H156.229V30.46H149.044ZM173.165 24.5833C173.165 25.8229 172.941 26.8942 172.494 27.7971C172.046 28.7001 171.432 29.3964 170.651 29.8861C169.871 30.3759 168.98 30.6207 167.977 30.6207C166.975 30.6207 166.083 30.3759 165.303 29.8861C164.522 29.3964 163.908 28.7001 163.461 27.7971C163.013 26.8942 162.789 25.8229 162.789 24.5833C162.789 23.3437 163.013 22.2724 163.461 21.3695C163.908 20.4666 164.522 19.7702 165.303 19.2805C166.083 18.7908 166.975 18.5459 167.977 18.5459C168.98 18.5459 169.871 18.7908 170.651 19.2805C171.432 19.7702 172.046 20.4666 172.494 21.3695C172.941 22.2724 173.165 23.3437 173.165 24.5833ZM171.788 24.5833C171.788 23.5656 171.618 22.7067 171.277 22.0065C170.94 21.3064 170.483 20.7765 169.905 20.4168C169.331 20.0572 168.689 19.8774 167.977 19.8774C167.265 19.8774 166.621 20.0572 166.043 20.4168C165.469 20.7765 165.012 21.3064 164.671 22.0065C164.335 22.7067 164.166 23.5656 164.166 24.5833C164.166 25.601 164.335 26.46 164.671 27.1601C165.012 27.8603 165.469 28.3902 166.043 28.7498C166.621 29.1095 167.265 29.2893 167.977 29.2893C168.689 29.2893 169.331 29.1095 169.905 28.7498C170.483 28.3902 170.94 27.8603 171.277 27.1601C171.618 26.46 171.788 25.601 171.788 24.5833ZM175.558 30.46V18.7066H182.606V19.9692H176.982V23.9405H182.078V25.2031H176.982V30.46H175.558Z" fill="#011F5B"/>
<path d="M74.9311 44.3127V32.5592H79.0402C79.859 32.5592 80.5343 32.7008 81.0661 32.9839C81.5979 33.2632 81.9939 33.6401 82.2541 34.1145C82.5142 34.5851 82.6443 35.1073 82.6443 35.6812C82.6443 36.1863 82.5544 36.6033 82.3746 36.9323C82.1986 37.2614 81.9652 37.5215 81.6744 37.7128C81.3875 37.9041 81.0757 38.0457 80.739 38.1375V38.2523C81.0986 38.2753 81.4602 38.4015 81.8236 38.6311C82.1871 38.8606 82.4913 39.1897 82.7361 39.6182C82.981 40.0467 83.1034 40.5708 83.1034 41.1907C83.1034 41.7799 82.9695 42.3098 82.7017 42.7803C82.4339 43.2509 82.0111 43.624 81.4334 43.8994C80.8557 44.1749 80.1039 44.3127 79.178 44.3127H74.9311ZM76.3544 43.0501H79.178C80.1077 43.0501 80.7677 42.8703 81.1579 42.5106C81.552 42.1471 81.749 41.7072 81.749 41.1907C81.749 40.7927 81.6476 40.4255 81.4449 40.0888C81.2421 39.7483 80.9532 39.4766 80.5783 39.2738C80.2033 39.0672 79.7595 38.9639 79.2468 38.9639H76.3544V43.0501ZM76.3544 37.7243H78.9943C79.4228 37.7243 79.8093 37.6401 80.1536 37.4718C80.5018 37.3035 80.7772 37.0662 80.98 36.7602C81.1866 36.4541 81.2899 36.0944 81.2899 35.6812C81.2899 35.1647 81.1101 34.7267 80.7505 34.367C80.3908 34.0035 79.8207 33.8218 79.0402 33.8218H76.3544V37.7243ZM93.1552 32.5592H94.5785V40.3413C94.5785 41.1447 94.3891 41.8621 94.0104 42.4934C93.6354 43.1209 93.1055 43.6163 92.4207 43.9798C91.7358 44.3394 90.9324 44.5193 90.0103 44.5193C89.0882 44.5193 88.2848 44.3394 87.5999 43.9798C86.9151 43.6163 86.3833 43.1209 86.0045 42.4934C85.6295 41.8621 85.4421 41.1447 85.4421 40.3413V32.5592H86.8653V40.2265C86.8653 40.8004 86.9916 41.3112 87.2441 41.7588C87.4966 42.2026 87.8563 42.5527 88.323 42.809C88.7936 43.0616 89.356 43.1878 90.0103 43.1878C90.6645 43.1878 91.227 43.0616 91.6975 42.809C92.1681 42.5527 92.5278 42.2026 92.7765 41.7588C93.029 41.3112 93.1552 40.8004 93.1552 40.2265V32.5592ZM103.848 35.4976C103.78 34.916 103.5 34.4646 103.01 34.1432C102.521 33.8218 101.92 33.6611 101.208 33.6611C100.688 33.6611 100.233 33.7453 99.8426 33.9136C99.4562 34.082 99.1539 34.3134 98.9358 34.6081C98.7216 34.9027 98.6144 35.2374 98.6144 35.6124C98.6144 35.9261 98.689 36.1958 98.8383 36.4216C98.9913 36.6435 99.1864 36.829 99.4236 36.9782C99.6608 37.1236 99.9095 37.2442 100.17 37.3398C100.43 37.4316 100.669 37.5062 100.887 37.5636L102.081 37.885C102.387 37.9653 102.727 38.0763 103.102 38.2179C103.481 38.3594 103.843 38.5526 104.187 38.7975C104.535 39.0385 104.822 39.3484 105.048 39.7272C105.274 40.106 105.386 40.5708 105.386 41.1218C105.386 41.7569 105.22 42.3308 104.887 42.8435C104.558 43.3562 104.076 43.7636 103.441 44.0659C102.81 44.3681 102.043 44.5193 101.14 44.5193C100.298 44.5193 99.569 44.3834 98.953 44.1118C98.3409 43.8401 97.8588 43.4614 97.5068 42.9755C97.1587 42.4896 96.9616 41.9252 96.9157 41.2825H98.3849C98.4231 41.7263 98.5724 42.0936 98.8325 42.3844C99.0965 42.6713 99.4294 42.8856 99.8311 43.0271C100.237 43.1649 100.673 43.2337 101.14 43.2337C101.683 43.2337 102.171 43.1457 102.603 42.9697C103.035 42.7899 103.378 42.5412 103.63 42.2237C103.883 41.9023 104.009 41.5273 104.009 41.0988C104.009 40.7086 103.9 40.391 103.682 40.1462C103.464 39.9013 103.177 39.7023 102.821 39.5493C102.465 39.3963 102.081 39.2624 101.668 39.1476L100.221 38.7344C99.3031 38.4704 98.5762 38.0935 98.0405 37.6038C97.5049 37.1141 97.2371 36.4732 97.2371 35.6812C97.2371 35.0232 97.415 34.4493 97.7708 33.9595C98.1305 33.466 98.6125 33.0834 99.217 32.8118C99.8254 32.5363 100.504 32.3985 101.254 32.3985C102.012 32.3985 102.685 32.5344 103.274 32.806C103.864 33.0738 104.33 33.4411 104.675 33.9079C105.023 34.3747 105.207 34.9046 105.226 35.4976H103.848ZM109.15 32.5592V44.3127H107.726V32.5592H109.15ZM121.324 32.5592V44.3127H119.946L113.542 35.0844H113.427V44.3127H112.003V32.5592H113.381L119.808 41.8105H119.923V32.5592H121.324ZM124.172 44.3127V32.5592H131.265V33.8218H125.595V37.7932H130.898V39.0558H125.595V43.0501H131.357V44.3127H124.172ZM140.258 35.4976C140.189 34.916 139.91 34.4646 139.42 34.1432C138.93 33.8218 138.33 33.6611 137.618 33.6611C137.098 33.6611 136.642 33.7453 136.252 33.9136C135.866 34.082 135.563 34.3134 135.345 34.6081C135.131 34.9027 135.024 35.2374 135.024 35.6124C135.024 35.9261 135.099 36.1958 135.248 36.4216C135.401 36.6435 135.596 36.829 135.833 36.9782C136.07 37.1236 136.319 37.2442 136.579 37.3398C136.839 37.4316 137.078 37.5062 137.297 37.5636L138.49 37.885C138.796 37.9653 139.137 38.0763 139.512 38.2179C139.891 38.3594 140.252 38.5526 140.596 38.7975C140.945 39.0385 141.232 39.3484 141.457 39.7272C141.683 40.106 141.796 40.5708 141.796 41.1218C141.796 41.7569 141.629 42.3308 141.297 42.8435C140.968 43.3562 140.486 43.7636 139.85 44.0659C139.219 44.3681 138.452 44.5193 137.549 44.5193C136.707 44.5193 135.978 44.3834 135.363 44.1118C134.75 43.8401 134.268 43.4614 133.916 42.9755C133.568 42.4896 133.371 41.9252 133.325 41.2825H134.794C134.833 41.7263 134.982 42.0936 135.242 42.3844C135.506 42.6713 135.839 42.8856 136.241 43.0271C136.646 43.1649 137.082 43.2337 137.549 43.2337C138.092 43.2337 138.58 43.1457 139.013 42.9697C139.445 42.7899 139.787 42.5412 140.04 42.2237C140.292 41.9023 140.419 41.5273 140.419 41.0988C140.419 40.7086 140.31 40.391 140.091 40.1462C139.873 39.9013 139.586 39.7023 139.231 39.5493C138.875 39.3963 138.49 39.2624 138.077 39.1476L136.631 38.7344C135.713 38.4704 134.986 38.0935 134.45 37.6038C133.914 37.1141 133.647 36.4732 133.647 35.6812C133.647 35.0232 133.824 34.4493 134.18 33.9595C134.54 33.466 135.022 33.0834 135.627 32.8118C136.235 32.5363 136.914 32.3985 137.664 32.3985C138.421 32.3985 139.095 32.5344 139.684 32.806C140.273 33.0738 140.74 33.4411 141.084 33.9079C141.432 34.3747 141.616 34.9046 141.635 35.4976H140.258ZM150.564 35.4976C150.495 34.916 150.215 34.4646 149.726 34.1432C149.236 33.8218 148.635 33.6611 147.924 33.6611C147.403 33.6611 146.948 33.7453 146.558 33.9136C146.171 34.082 145.869 34.3134 145.651 34.6081C145.437 34.9027 145.33 35.2374 145.33 35.6124C145.33 35.9261 145.404 36.1958 145.553 36.4216C145.707 36.6435 145.902 36.829 146.139 36.9782C146.376 37.1236 146.625 37.2442 146.885 37.3398C147.145 37.4316 147.384 37.5062 147.602 37.5636L148.796 37.885C149.102 37.9653 149.443 38.0763 149.818 38.2179C150.196 38.3594 150.558 38.5526 150.902 38.7975C151.25 39.0385 151.537 39.3484 151.763 39.7272C151.989 40.106 152.102 40.5708 152.102 41.1218C152.102 41.7569 151.935 42.3308 151.602 42.8435C151.273 43.3562 150.791 43.7636 150.156 44.0659C149.525 44.3681 148.758 44.5193 147.855 44.5193C147.013 44.5193 146.284 44.3834 145.668 44.1118C145.056 43.8401 144.574 43.4614 144.222 42.9755C143.874 42.4896 143.677 41.9252 143.631 41.2825H145.1C145.138 41.7263 145.288 42.0936 145.548 42.3844C145.812 42.6713 146.145 42.8856 146.546 43.0271C146.952 43.1649 147.388 43.2337 147.855 43.2337C148.398 43.2337 148.886 43.1457 149.318 42.9697C149.751 42.7899 150.093 42.5412 150.346 42.2237C150.598 41.9023 150.724 41.5273 150.724 41.0988C150.724 40.7086 150.615 40.391 150.397 40.1462C150.179 39.9013 149.892 39.7023 149.536 39.5493C149.181 39.3963 148.796 39.2624 148.383 39.1476L146.937 38.7344C146.018 38.4704 145.291 38.0935 144.756 37.6038C144.22 37.1141 143.952 36.4732 143.952 35.6812C143.952 35.0232 144.13 34.4493 144.486 33.9595C144.846 33.466 145.328 33.0834 145.932 32.8118C146.541 32.5363 147.22 32.3985 147.97 32.3985C148.727 32.3985 149.401 32.5344 149.99 32.806C150.579 33.0738 151.046 33.4411 151.39 33.9079C151.738 34.3747 151.922 34.9046 151.941 35.4976H150.564ZM162.132 44.4733C161.359 44.4733 160.693 44.3318 160.135 44.0487C159.576 43.7655 159.146 43.3772 158.844 42.8836C158.541 42.3901 158.39 41.8258 158.39 41.1907C158.39 40.7009 158.493 40.2667 158.7 39.8879C158.91 39.5053 159.199 39.1514 159.567 38.8262C159.938 38.4972 160.364 38.1681 160.846 37.8391L162.545 36.5765C162.878 36.3584 163.144 36.1251 163.343 35.8764C163.546 35.6277 163.647 35.3025 163.647 34.9007C163.647 34.6023 163.515 34.3134 163.251 34.0342C162.991 33.7549 162.648 33.6152 162.224 33.6152C161.925 33.6152 161.661 33.6917 161.432 33.8448C161.206 33.994 161.028 34.1853 160.898 34.4187C160.772 34.6482 160.709 34.8854 160.709 35.1303C160.709 35.4058 160.783 35.6851 160.933 35.9682C161.086 36.2475 161.279 36.5344 161.512 36.829C161.749 37.1198 161.994 37.4182 162.247 37.7243L167.641 44.3127H166.011L161.558 38.941C161.145 38.4436 160.77 37.9921 160.433 37.5866C160.097 37.181 159.829 36.7812 159.63 36.3871C159.431 35.9931 159.331 35.5665 159.331 35.1073C159.331 34.5794 159.448 34.1164 159.681 33.7185C159.919 33.3168 160.25 33.005 160.674 32.7831C161.103 32.5573 161.604 32.4445 162.178 32.4445C162.767 32.4445 163.274 32.5592 163.699 32.7888C164.123 33.0145 164.45 33.3149 164.68 33.6898C164.91 34.0609 165.024 34.4646 165.024 34.9007C165.024 35.4632 164.885 35.951 164.605 36.3642C164.326 36.7774 163.945 37.1619 163.463 37.5177L161.122 39.2624C160.594 39.6526 160.236 40.0314 160.049 40.3987C159.861 40.766 159.767 41.03 159.767 41.1907C159.767 41.5579 159.863 41.9004 160.054 42.2179C160.246 42.5355 160.515 42.7918 160.864 42.9869C161.212 43.1821 161.619 43.2796 162.086 43.2796C162.53 43.2796 162.962 43.1859 163.383 42.9984C163.804 42.8071 164.185 42.5317 164.525 42.172C164.869 41.8124 165.141 41.38 165.34 40.875C165.543 40.37 165.644 39.8018 165.644 39.1705H166.953C166.953 39.951 166.863 40.5881 166.683 41.0816C166.503 41.5752 166.3 41.9616 166.075 42.2409C165.849 42.5202 165.667 42.7287 165.529 42.8664C165.484 42.9238 165.441 42.9812 165.403 43.0386C165.365 43.096 165.323 43.1534 165.277 43.2108C164.898 43.6355 164.42 43.953 163.842 44.1634C163.264 44.37 162.694 44.4733 162.132 44.4733Z" fill="#011F5B"/>
<path d="M74.9311 46.4118H76.6299L80.6242 56.1681H80.7619L84.7563 46.4118H86.455V58.1652H85.1236V49.2354H85.0088L81.3358 58.1652H80.0503L76.3774 49.2354H76.2626V58.1652H74.9311V46.4118ZM89.7908 58.1652H88.2986L92.6143 46.4118H94.0835L98.3992 58.1652H96.9071L93.3948 48.2712H93.303L89.7908 58.1652ZM90.3417 53.574H96.3562V54.8366H90.3417V53.574ZM109.55 46.4118V58.1652H108.173L101.768 48.937H101.653V58.1652H100.23V46.4118H101.607L108.035 55.663H108.15V46.4118H109.55ZM112.88 58.1652H111.388L115.704 46.4118H117.173L121.489 58.1652H119.996L116.484 48.2712H116.392L112.88 58.1652ZM113.431 53.574H119.445V54.8366H113.431V53.574ZM130.801 50.0847C130.675 49.6983 130.509 49.3521 130.302 49.046C130.099 48.7361 129.856 48.4721 129.573 48.254C129.294 48.0359 128.976 47.8695 128.621 47.7547C128.265 47.6399 127.875 47.5826 127.45 47.5826C126.754 47.5826 126.12 47.7624 125.55 48.122C124.98 48.4817 124.527 49.0116 124.19 49.7117C123.853 50.4119 123.685 51.2708 123.685 52.2885C123.685 53.3062 123.855 54.1652 124.196 54.8653C124.536 55.5655 124.997 56.0954 125.579 56.455C126.161 56.8147 126.815 56.9945 127.542 56.9945C128.215 56.9945 128.808 56.851 129.321 56.564C129.837 56.2733 130.239 55.8639 130.526 55.3359C130.817 54.8041 130.962 54.1785 130.962 53.4593L131.398 53.5511H127.863V52.2885H132.34V53.5511C132.34 54.5191 132.133 55.3608 131.72 56.0762C131.31 56.7917 130.744 57.3465 130.021 57.7405C129.302 58.1308 128.475 58.3259 127.542 58.3259C126.501 58.3259 125.587 58.0811 124.799 57.5913C124.014 57.1016 123.402 56.4053 122.962 55.5023C122.526 54.5994 122.308 53.5281 122.308 52.2885C122.308 51.3588 122.432 50.5228 122.681 49.7806C122.933 49.0345 123.289 48.3994 123.748 47.8752C124.207 47.3511 124.751 46.9494 125.378 46.6701C126.006 46.3908 126.696 46.2511 127.45 46.2511C128.07 46.2511 128.647 46.3449 129.183 46.5323C129.723 46.716 130.203 46.9781 130.624 47.3186C131.048 47.6553 131.402 48.0589 131.685 48.5295C131.968 48.9963 132.164 49.5147 132.271 50.0847H130.801ZM134.777 58.1652V46.4118H141.871V47.6744H136.2V51.6457H141.503V52.9083H136.2V56.9026H141.962V58.1652H134.777ZM144.436 46.4118H146.135L150.129 56.1681H150.267L154.261 46.4118H155.96V58.1652H154.628V49.2354H154.513L150.841 58.1652H149.555L145.882 49.2354H145.767V58.1652H144.436V46.4118ZM158.813 58.1652V46.4118H165.907V47.6744H160.237V51.6457H165.539V52.9083H160.237V56.9026H165.999V58.1652H158.813ZM177.792 46.4118V58.1652H176.415L170.01 48.937H169.895V58.1652H168.472V46.4118H169.849L176.277 55.663H176.392V46.4118H177.792ZM179.997 47.6744V46.4118H188.812V47.6744H185.117V58.1652H183.693V47.6744H179.997Z" fill="#011F5B"/>
<path d="M32.4628 72.1083C14.5645 72.1083 0 57.5438 0 39.643V0H64.9281V39.643C64.9281 57.5438 50.366 72.1083 32.4628 72.1083Z" fill="#011F5B"/>
<path d="M32.4628 69.2046C24.6254 69.1956 17.1115 66.0782 11.5696 60.5362C6.02765 54.9943 2.91025 47.4805 2.90125 39.643V2.90121H62.0268V39.643C62.0178 47.4809 58.9001 54.9951 53.3576 60.5371C47.8152 66.0791 40.3007 69.1962 32.4628 69.2046Z" fill="white"/>
<path d="M5.80243 5.8049H59.1231V39.643C59.1231 46.7138 56.3142 53.4949 51.3145 58.4947C46.3147 63.4945 39.5335 66.3034 32.4628 66.3034C25.392 66.3034 18.6108 63.4945 13.6111 58.4947C8.61128 53.4949 5.80243 46.7138 5.80243 39.643V5.8049Z" fill="#990000"/>
<path d="M43.5478 14.584H15.0384V17.7573H43.5478V14.584Z" fill="white"/>
<path d="M40.3865 20.9307V30.446H43.5575V20.9307H40.3865Z" fill="white"/>
<path d="M15.0287 14.5937V24.1041H18.1996V14.5937H15.0287Z" fill="white"/>
<path d="M43.5478 20.9307H15.0384V24.1041H43.5478V20.9307Z" fill="white"/>
<path d="M49.8946 14.584H46.7285V17.7573H49.8946V14.584Z" fill="white"/>
<path d="M49.8946 20.9307H46.7285V30.4485H49.8946V20.9307Z" fill="white"/>
<path d="M43.5478 27.2775H15.0384V30.4509H43.5478V27.2775Z" fill="white"/>
<path d="M49.8994 49.4718V33.617H46.7285V49.4718H49.8994Z" fill="white"/>
<path d="M43.5575 49.4742V33.6194H40.3865V49.4742H43.5575Z" fill="white"/>
<path d="M37.2156 49.4742V33.6194H34.0446V49.4742H37.2156Z" fill="white"/>
<path d="M30.8762 38.3625C30.8786 38.9879 30.7565 39.6075 30.517 40.1853C30.2776 40.7631 29.9256 41.2874 29.4814 41.7278C29.046 42.1731 28.5253 42.5261 27.9505 42.7657C27.3756 43.0054 26.7583 43.1267 26.1355 43.1225H15.0287V39.9637H26.1161C26.5369 39.9637 26.9405 39.7966 27.2381 39.499C27.5356 39.2014 27.7028 38.7979 27.7028 38.377C27.7028 37.9562 27.5356 37.5526 27.2381 37.2551C26.9405 36.9575 26.5369 36.7904 26.1161 36.7904H15.0287V33.6218H26.1355C27.3922 33.6238 28.5969 34.1238 29.4856 35.0125C30.3742 35.9011 30.8743 37.1058 30.8762 38.3625Z" fill="white"/>
<path d="M30.8762 44.7092C30.8711 45.9647 30.3699 47.1673 29.4819 48.0549C28.5939 48.9424 27.391 49.443 26.1355 49.4475H15.0287V46.2886H26.1161C26.5369 46.2886 26.9405 46.1215 27.2381 45.8239C27.5356 45.5264 27.7028 45.1228 27.7028 44.702C27.7028 44.2811 27.5356 43.8776 27.2381 43.58C26.9405 43.2824 26.5369 43.1153 26.1161 43.1153H15.0287V39.9565H26.1355C26.7593 39.9558 27.377 40.0784 27.9533 40.3172C28.5295 40.5559 29.0529 40.9062 29.4934 41.3478C29.9339 41.7894 30.2828 42.3137 30.5201 42.8906C30.7574 43.4674 30.8784 44.0855 30.8762 44.7092Z" fill="white"/>
</g>
<defs>
<clipPath id="clip0_242_407">
<rect width="199" height="72.1083" fill="white"/>
</clipPath>
</defs>
</svg>
